<svg width="79" height="79" viewBox="0 0 240 65.2" version="1.1" xmlns="http://www.w3.org/2000/svg" xmlns:xlink="http://www.w3.org/1999/xlink" xml:space="preserve" style="fill-rule:evenodd;clip-rule:evenodd;stroke-linejoin:round;stroke-miterlimit:2;">
    <g transform="translate(4,6)">
        <g>
            <circle fill="#C9F73A" cx="32.6" cy="32.6" r="32.6"/>
            <path d="M52.4,46.5H48V36.2c0-2.8-1.8-5.1-4.7-5.1c-3,0-4.8,2.2-4.8,5.1v10.4H34V36.1c0-5.6,3.6-9.3,9.2-9.3
                c5.6,0,9.1,3.6,9.1,9.3L52.4,46.5L52.4,46.5z"/>
            <path d="M12.7,18.7h4.4v10.4c0,2.8,1.8,5.1,4.7,5.1c3,0,4.8-2.2,4.8-5.1V18.7h4.4v10.4c0,5.6-3.6,9.3-9.2,9.3
                c-5.6,0-9.1-3.6-9.1-9.3L12.7,18.7L12.7,18.7z"/>
        </g>
    </g>
</svg>
